<svg xmlns="http://www.w3.org/2000/svg" viewBox="0 0 1143.48 265.72">
  <path
    d="M1116.99 161.875c-.711 3.582-1.935 6.709-3.663 9.394a20.322 20.322 0 01-6.807 6.534c-2.797 1.673-6.29 2.513-10.464 2.513-4.059 0-7.519-.84-10.38-2.513-2.867-1.66-5.159-3.847-6.895-6.534-1.72-2.685-2.978-5.812-3.757-9.394a51.418 51.418 0 01-1.16-10.908c0-3.832.365-7.53 1.076-11.102.715-3.581 1.941-6.741 3.668-9.5 1.728-2.737 3.999-4.973 6.801-6.7 2.795-1.73 6.287-2.606 10.468-2.606 4.055 0 7.482.876 10.282 2.606 2.81 1.727 5.101 3.987 6.893 6.795 1.797 2.807 3.079 6.003 3.85 9.577a50.964 50.964 0 011.165 10.93c0 3.688-.363 7.333-1.078 10.908m23.98-29.088c-1.672-6.02-4.234-11.304-7.697-15.84-3.46-4.532-7.805-8.176-13.056-10.916-5.255-2.75-11.523-4.115-18.799-4.115-5.72 0-10.973 1.128-15.741 3.396-4.773 2.27-8.71 5.91-11.812 10.921h-.35v-11.818h-24.162V229.36h25.405v-43.853h.36c3.102 4.539 7.076 7.964 11.902 10.284 4.828 2.327 10.113 3.497 15.841 3.497 6.793 0 12.727-1.322 17.804-3.941 5.063-2.621 9.307-6.147 12.7-10.564 3.408-4.417 5.933-9.483 7.605-15.21 1.679-5.731 2.508-11.697 2.508-17.9 0-6.563-.829-12.855-2.508-18.887m-125.252 29.088c-.722 3.582-1.949 6.709-3.673 9.394-1.73 2.687-3.999 4.874-6.81 6.534-2.795 1.673-6.29 2.513-10.462 2.513-4.061 0-7.507-.84-10.37-2.513-2.869-1.66-5.162-3.847-6.894-6.534-1.73-2.685-2.981-5.812-3.759-9.394a51.157 51.157 0 01-1.157-10.908c0-3.832.348-7.53 1.063-11.102.725-3.581 1.94-6.741 3.676-9.5 1.718-2.737 3.992-4.973 6.804-6.7 2.798-1.73 6.278-2.606 10.461-2.606 4.05 0 7.493.876 10.288 2.606a21.31 21.31 0 016.89 6.795c1.786 2.807 3.067 6.003 3.846 9.577a51.214 51.214 0 011.157 10.93 55.77 55.77 0 01-1.06 10.908m16.276-44.928c-3.454-4.532-7.813-8.176-13.064-10.916-5.252-2.75-11.509-4.115-18.782-4.115-5.734 0-10.979 1.128-15.746 3.396-4.785 2.27-8.71 5.91-11.809 10.921h-.365v-11.818h-24.164V229.36h25.426v-43.853h.344c3.099 4.539 7.076 7.964 11.911 10.284 4.82 2.327 10.103 3.497 15.83 3.497 6.805 0 12.735-1.322 17.803-3.941 5.071-2.621 9.307-6.147 12.707-10.564 3.404-4.417 5.928-9.483 7.61-15.21 1.658-5.731 2.503-11.697 2.503-17.9 0-6.563-.845-12.855-2.502-18.887-1.683-6.02-4.242-11.304-7.702-15.84m-167.128 30.61l16.642-46.9h.354l16.108 46.9zm2.68-78.402l-48.31 127.802h28.273l10.015-28.461h47.784l9.654 28.461h29.175L896.363 69.155zm-50.462 87.262a23.025 23.025 0 00-6.62-7.344c-2.743-1.962-5.882-3.548-9.394-4.746a110.21 110.21 0 00-10.832-3.032 416.405 416.405 0 00-10.549-2.332c-3.46-.72-6.539-1.524-9.224-2.414-2.681-.897-4.85-2.053-6.523-3.497-1.676-1.428-2.502-3.275-2.502-5.545 0-1.91.465-3.43 1.425-4.566a9.577 9.577 0 013.492-2.598c1.375-.592 2.885-.978 4.56-1.163a44.58 44.58 0 014.652-.26c4.536 0 8.473.863 11.82 2.592 3.33 1.73 5.185 5.043 5.537 9.932h24.158c-.478-5.724-1.936-10.465-4.384-14.235-2.442-3.753-5.519-6.768-9.214-9.032-3.692-2.268-7.9-3.876-12.62-4.833-4.712-.956-9.569-1.428-14.572-1.428-5.018 0-9.913.448-14.673 1.333-4.781.9-9.075 2.458-12.887 4.66-3.822 2.207-6.889 5.215-9.221 9.038-2.33 3.817-3.492 8.716-3.492 14.677 0 4.057.843 7.495 2.515 10.296 1.654 2.808 3.873 5.125 6.606 6.977 2.752 1.85 5.886 3.347 9.403 4.472a122.876 122.876 0 0010.82 2.962c9.076 1.912 16.147 3.814 21.212 5.73 5.07 1.906 7.605 4.768 7.605 8.591 0 2.267-.532 4.136-1.608 5.63a12.173 12.173 0 01-4.025 3.582c-1.62.899-3.41 1.559-5.37 1.967-1.969.421-3.853.632-5.64.632-2.506 0-4.92-.302-7.24-.896-2.333-.598-4.39-1.524-6.178-2.778-1.788-1.25-3.257-2.858-4.388-4.833-1.125-1.97-1.704-4.317-1.704-7.07h-24.155c.244 6.206 1.642 11.37 4.214 15.485 2.553 4.117 5.832 7.425 9.836 9.936 3.994 2.501 8.562 4.296 13.697 5.373a76.723 76.723 0 0015.732 1.61 79.52 79.52 0 0015.487-1.518c5.069-1.017 9.573-2.779 13.51-5.29 3.946-2.5 7.123-5.811 9.576-9.931 2.439-4.123 3.66-9.223 3.66-15.31 0-4.302-.833-7.901-2.502-10.824M712.049 76.675h-25.414v27.74h-15.383v17.002h15.383v54.598c0 4.66.784 8.414 2.329 11.276 1.553 2.86 3.668 5.081 6.35 6.628 2.685 1.552 5.789 2.592 9.309 3.129 3.509.533 7.253.804 11.181.804 2.515 0 5.072-.064 7.701-.172 2.619-.123 5.003-.355 7.155-.723v-19.692a32.04 32.04 0 01-3.764.538 44.574 44.574 0 01-4.113.185c-4.291 0-7.158-.723-8.592-2.153-1.424-1.428-2.142-4.294-2.142-8.594v-45.824h18.611v-17.002h-18.61zm-72.83 84.477c0 1.444-.146 3.352-.448 5.735-.296 2.393-1.103 4.741-2.414 7.069-1.313 2.327-3.348 4.333-6.084 5.996-2.742 1.676-6.62 2.51-11.636 2.51-2.022 0-3.994-.178-5.902-.543-1.912-.352-3.578-.984-5.01-1.876-1.429-.895-2.566-2.119-3.402-3.671-.83-1.55-1.252-3.453-1.252-5.72 0-2.385.422-4.367 1.252-5.91a11.585 11.585 0 013.316-3.85c1.365-1.013 2.978-1.817 4.828-2.42a46.056 46.056 0 015.638-1.43c2.023-.35 4.056-.658 6.079-.895a78.965 78.965 0 005.817-.892 40.933 40.933 0 005.194-1.348c1.61-.538 2.948-1.274 4.024-2.234zm25.408 15.22v-48.145c0-5.618-1.247-10.118-3.76-13.514-2.5-3.404-5.723-6.056-9.655-7.966-3.943-1.908-8.3-3.194-13.07-3.848a103.652 103.652 0 00-14.133-.983c-5.126 0-10.232.503-15.294 1.52-5.083 1.013-9.636 2.717-13.695 5.099a30.34 30.34 0 00-10.016 9.486c-2.633 3.938-4.123 8.891-4.479 14.859h25.407c.477-5.015 2.155-8.597 5.019-10.743 2.861-2.149 6.793-3.217 11.809-3.217 2.263 0 4.377.15 6.35.445 1.965.302 3.697.89 5.19 1.79 1.493.894 2.685 2.144 3.576 3.76.895 1.609 1.343 3.792 1.343 6.529.118 2.633-.66 4.62-2.323 5.995-1.676 1.38-3.939 2.426-6.803 3.133-2.864.723-6.145 1.261-9.845 1.608-3.7.365-7.455.852-11.268 1.44a106.96 106.96 0 00-11.36 2.417c-3.757 1.008-7.108 2.538-10.027 4.558-2.925 2.038-5.309 4.749-7.164 8.152-1.845 3.402-2.768 7.732-2.768 12.976 0 4.772.804 8.888 2.415 12.345 1.61 3.47 3.845 6.323 6.712 8.593 2.865 2.268 6.203 3.942 10.02 5.019 3.812 1.07 7.93 1.61 12.35 1.61a57.64 57.64 0 0016.813-2.502c5.49-1.683 10.268-4.596 14.324-8.779.118 1.551.326 3.078.621 4.566.299 1.485.69 2.956 1.167 4.382h25.77c-1.192-1.898-2.033-4.765-2.505-8.59-.484-3.816-.721-7.807-.721-11.995m-104.683-63.993c-2.501-3.283-5.933-5.844-10.281-7.699-4.36-1.84-9.938-2.764-16.734-2.764-4.773 0-9.662 1.219-14.678 3.67-5.008 2.44-9.126 6.351-12.344 11.725h-.538V69.155h-25.41v127.802h25.41V148.45c0-9.425 1.55-16.193 4.654-20.317 3.098-4.112 8.109-6.173 15.032-6.173 6.081 0 10.317 1.878 12.704 5.642 2.386 3.755 3.578 9.456 3.578 17.09v52.266h25.412v-56.92c0-5.724-.512-10.942-1.522-15.665-1.015-4.705-2.775-8.707-5.283-11.993m-134.205 44.844h-.354l-21.83-88.068h-26.306l-22.192 86.992h-.356L334.48 69.155h-28.09l33.818 127.802h28.455l21.289-86.993h.359l21.652 86.993h27.916l34.358-127.802h-27.556zm-232.934 2.01c-3.289-1.646-19.465-9.605-22.48-10.702-3.016-1.098-5.209-1.648-7.402 1.645-2.194 3.295-8.498 10.705-10.418 12.899-1.918 2.198-3.837 2.473-7.128.826-3.289-1.648-13.89-5.122-26.457-16.33-9.78-8.723-16.383-19.499-18.301-22.794-1.92-3.29-.206-5.07 1.442-6.712 1.48-1.473 3.29-3.844 4.935-5.762 1.644-1.924 2.193-3.295 3.29-5.492 1.097-2.194.547-4.118-.274-5.763-.823-1.648-7.403-17.841-10.145-24.427-2.67-6.414-5.382-5.548-7.402-5.646-1.916-.099-4.113-.119-6.305-.119-2.193 0-5.757.827-8.773 4.117-3.015 3.294-11.515 11.254-11.515 27.446 0 16.193 11.79 31.838 13.435 34.036 1.644 2.193 23.198 35.426 56.201 49.676 7.85 3.389 13.979 5.413 18.756 6.93 7.881 2.503 15.053 2.15 20.721 1.304 6.322-.945 19.466-7.96 22.207-15.645 2.741-7.685 2.741-14.27 1.919-15.645-.822-1.371-3.015-2.194-6.306-3.842m-60.028 81.964h-.045c-19.637-.006-38.899-5.285-55.701-15.256l-3.996-2.369-41.42 10.864 11.056-40.383-2.603-4.141c-10.955-17.425-16.74-37.565-16.732-58.241C23.36 71.33 72.455 22.24 132.82 22.24c29.23.01 56.708 11.41 77.37 32.095 20.663 20.685 32.035 48.182 32.025 77.424-.026 60.344-49.119 109.438-109.438 109.438M132.775 0C60.2 0 1.135 59.064 1.105 131.66c-.009 23.208 6.054 45.861 17.575 65.825L0 265.72l69.801-18.308c19.231 10.488 40.884 16.014 62.923 16.022h.053c72.567 0 131.639-59.068 131.668-131.668.014-35.178-13.669-68.262-38.529-93.149C201.057 13.729 167.997.017 132.775 0"
    fill="#455a64"
  />
</svg>
