<svg
  xmlns="http://www.w3.org/2000/svg"
  xmlns:xlink="http://www.w3.org/1999/xlink"
  version="1.1"
  width="566.929pt"
  height="566.929pt"
  viewBox="0 0 566.929 566.929"
  aria-hidden="true"
>
  <g enable-background="new">
    <g id="Layer-1" data-name="Layer">
      <clipPath id="cp0">
        <path
          transform="matrix(1,0,0,-1,0,566.929)"
          d="M 0 566.929 L 566.929 566.929 L 566.929 0 L 0 0 Z "
        />
      </clipPath>
      <g clip-path="url(#cp0)">
        <path
          transform="matrix(1,0,0,-1,28.2192,379.992)"
          d="M 0 0 C 42.192 -103.771 138.521 -176.561 253.388 -176.561 C 368.35 -176.561 466.986 -103.65 509.12 .26 L 498.353 18.122 L 527.071 67.299 L 510.901 101.066 L 519.859 140.23 L 492.885 174.396 L 486.742 231.874 L 448.698 256.628 L 431.691 305.768 L 375.532 315.374 C 375.532 315.374 348.561 350.843 290.988 368.581 C 290.634 368.69 255.824 346.04 214.075 367.838 C 213.611 368.08 147.939 345.67 134.27 317.221 C 134.043 316.75 79.24 306.137 79.24 306.137 L 61.919 256.998 L 24.548 232.613 L 17.539 174.976 L -9.147 141.534 L -.372 101.976 L -16.849 67.177 L 9.905 18.08 Z "
          fill="#ffffff"
        />
        <path
          transform="matrix(1,0,0,-1,28.2192,379.992)"
          stroke-width="7.937"
          stroke-linecap="butt"
          stroke-miterlimit="3.864"
          stroke-linejoin="miter"
          fill="none"
          stroke="#231f20"
          d="M 0 0 C 42.192 -103.771 138.521 -176.561 253.388 -176.561 C 368.35 -176.561 466.986 -103.65 509.12 .26 L 498.353 18.122 L 527.071 67.299 L 510.901 101.066 L 519.859 140.23 L 492.885 174.396 L 486.742 231.874 L 448.698 256.628 L 431.691 305.768 L 375.532 315.374 C 375.532 315.374 348.561 350.843 290.988 368.581 C 290.634 368.69 255.824 346.04 214.075 367.838 C 213.611 368.08 147.939 345.67 134.27 317.221 C 134.043 316.75 79.24 306.137 79.24 306.137 L 61.919 256.998 L 24.548 232.613 L 17.539 174.976 L -9.147 141.534 L -.372 101.976 L -16.849 67.177 L 9.905 18.08 L 0 0 Z "
        />
        <path
          transform="matrix(1,0,0,-1,434.393,248.2586)"
          d="M 0 0 C 0 -83.151 -67.408 -150.559 -150.559 -150.559 C -233.71 -150.559 -301.117 -83.151 -301.117 0 C -301.117 83.151 -233.71 150.558 -150.559 150.558 C -67.408 150.558 0 83.151 0 0 "
          fill="#ed1c24"
        />
        <path
          transform="matrix(1,0,0,-1,236.0448,139.00083)"
          d="M 0 0 C -.869 0 -1.667 -.459 -2.118 -1.201 C -4.928 -5.821 -17.631 -23.275 -59.505 -44.961 C -59.718 -45.072 -59.183 -161.677 -59.097 -180.084 C -59.09 -181.437 -57.996 -182.523 -56.643 -182.531 L 30.351 -183.033 C 32.637 -183.046 33.711 -180.213 31.991 -178.707 L -1.506 -149.386 C -2.179 -148.798 -3.109 -148.616 -3.95 -148.914 C -7.453 -150.157 -17.358 -153.686 -29.202 -158.042 C -29.462 -158.139 -28.604 -104.375 -28.05 -43.782 C -28.048 -43.606 26.224 -27.566 40.299 -3.759 C 41.281 -2.098 40.12 0 38.19 0 Z "
          fill="#ffffff"
        />
        <path
          transform="matrix(1,0,0,-1,236.0448,139.00083)"
          stroke-width="1.417"
          stroke-linecap="butt"
          stroke-miterlimit="10"
          stroke-linejoin="miter"
          fill="none"
          stroke="#ed1c24"
          d="M 0 0 C -.869 0 -1.667 -.459 -2.118 -1.201 C -4.928 -5.821 -17.631 -23.275 -59.505 -44.961 C -59.718 -45.072 -59.183 -161.677 -59.097 -180.084 C -59.09 -181.437 -57.996 -182.523 -56.643 -182.531 L 30.351 -183.033 C 32.637 -183.046 33.711 -180.213 31.991 -178.707 L -1.506 -149.386 C -2.179 -148.798 -3.109 -148.616 -3.95 -148.914 C -7.453 -150.157 -17.358 -153.686 -29.202 -158.042 C -29.462 -158.139 -28.604 -104.375 -28.05 -43.782 C -28.048 -43.606 26.224 -27.566 40.299 -3.759 C 41.281 -2.098 40.12 0 38.19 0 L 0 0 Z "
        />
        <path
          transform="matrix(1,0,0,-1,332.9096,360.4764)"
          d="M 0 0 C .868 0 1.667 .459 2.118 1.201 C 4.929 5.821 17.631 23.274 59.505 44.961 C 59.719 45.071 59.183 161.677 59.097 180.083 C 59.091 181.437 57.996 182.523 56.643 182.531 L -30.351 183.033 C -32.637 183.046 -33.711 180.213 -31.991 178.708 L 1.507 149.386 C 2.179 148.798 3.108 148.616 3.95 148.915 C 7.453 150.157 17.357 153.686 29.201 158.042 C 29.463 158.138 28.604 104.375 28.05 43.782 C 28.048 43.606 -26.224 27.565 -40.299 3.759 C -41.281 2.099 -40.119 0 -38.19 0 Z "
          fill="#ffffff"
        />
        <path
          transform="matrix(1,0,0,-1,332.9096,360.4764)"
          stroke-width="1.417"
          stroke-linecap="butt"
          stroke-miterlimit="10"
          stroke-linejoin="miter"
          fill="none"
          stroke="#ed1c24"
          d="M 0 0 C .868 0 1.667 .459 2.118 1.201 C 4.929 5.821 17.631 23.274 59.505 44.961 C 59.719 45.071 59.183 161.677 59.097 180.083 C 59.091 181.437 57.996 182.523 56.643 182.531 L -30.351 183.033 C -32.637 183.046 -33.711 180.213 -31.991 178.708 L 1.507 149.386 C 2.179 148.798 3.108 148.616 3.95 148.915 C 7.453 150.157 17.357 153.686 29.201 158.042 C 29.463 158.138 28.604 104.375 28.05 43.782 C 28.048 43.606 -26.224 27.565 -40.299 3.759 C -41.281 2.099 -40.119 0 -38.19 0 L 0 0 Z "
        />
        <path
          transform="matrix(1,0,0,-1,325.4106,247.53061)"
          d="M 0 0 C 0 -23.16 -18.775 -41.935 -41.935 -41.935 C -65.095 -41.935 -83.87 -23.16 -83.87 0 C -83.87 23.16 -65.095 41.935 -41.935 41.935 C -18.775 41.935 0 23.16 0 0 "
          fill="#ffffff"
        />
        <path
          transform="matrix(1,0,0,-1,252.0116,456.6629)"
          d="M 0 0 C -.559 .029 -.989 .491 -.984 1.051 L 1.313 7.637 C 1.318 8.196 .88 8.659 .321 8.687 L -104.126 13.51 C -104.494 13.527 -104.83 13.74 -105.002 14.065 C -109.993 23.462 -112.706 31.609 -112.709 31.635 C -112.709 31.636 -112.708 31.635 -112.708 31.635 L 3.685 15.069 C 4.906 14.905 6.126 16.285 4.978 16.732 L -137.873 71.457 C -138.281 71.616 -138.546 72.013 -138.537 72.451 L -137.964 98.075 C -137.964 98.076 -137.965 98.077 -137.964 98.077 C -137.875 98.032 -15.512 34.823 8.879 22.644 C 11.627 21.271 11.82 22.848 11.803 22.868 C 2.022 34.836 -11.898 51.94 -12.193 52.02 C -86.813 72.337 -123.543 138.388 -129.179 190.075 C -132.986 224.993 -125.293 256.127 -118.341 269.633 C -118.18 269.947 -118.894 270.69 -119.106 270.971 C -129.634 284.907 -134.723 309.648 -135.096 309.438 C -157.415 296.913 -164.779 273.498 -164.408 273.618 C -152.322 277.509 -140.917 278.72 -141.158 278.44 C -164.875 250.953 -181.124 218.537 -185.542 209.256 C -185.955 208.39 -185.098 207.552 -184.188 207.859 C -174.859 211.005 -168.863 211.843 -168.946 211.589 C -190.667 145.432 -190.523 116.451 -189.825 116.915 C -181.14 122.691 -168.539 130.191 -168.583 129.538 C -172.933 63.778 -156.805 33.784 -156.573 34.023 C -150.844 39.941 -139.773 45.819 -139.68 45.306 C -116.582 -81.989 15.265 -80.426 30.109 -79.993 C 30.108 -80.053 30.108 -80.092 30.108 -80.092 C 34.537 -79.973 177.07 -87.648 201.172 45.18 C 201.265 45.693 211.605 40.681 218.065 33.897 C 218.294 33.656 234.424 63.652 230.074 129.412 C 230.031 130.065 240.792 126.027 251.317 117.909 C 251.981 117.396 252.159 145.306 230.438 211.463 C 230.354 211.717 237.836 210.636 245.68 207.733 C 246.58 207.4 247.447 208.264 247.034 209.13 C 242.615 218.411 226.367 250.827 202.65 278.314 C 202.409 278.594 214.56 277.14 225.9 273.492 C 226.271 273.372 218.906 296.787 196.587 309.312 C 196.214 309.522 195.46 289.092 182.309 272.449 C 182.09 272.172 182.013 271.801 182.16 271.481 C 189.302 255.84 197.602 226.197 193.493 190.321 C 187.598 138.869 151.371 72.337 73.536 50.908 C 73.241 50.827 59.29 34.836 49.689 22.742 C 49.674 22.724 50.375 21.041 52.476 22.09 C 74.275 32.959 199.365 97.905 199.456 97.951 C 199.457 97.951 199.456 97.95 199.456 97.949 L 200.028 72.325 C 200.038 71.887 199.773 71.49 199.365 71.331 L 55.78 16.363 C 54.63 15.915 56.405 14.658 57.626 14.823 L 174.2 31.509 C 174.2 31.509 174.201 31.51 174.201 31.509 C 174.198 31.483 171.485 23.336 166.494 13.939 C 166.321 13.614 165.986 13.401 165.618 13.384 L 61.17 8.561 C 60.612 8.534 60.173 8.07 60.178 7.511 L 62.476 .925 C 62.481 .365 62.05 -.097 61.492 -.126 Z "
          fill="#231f20"
        />
        <path
          transform="matrix(1,0,0,-1,516.0453,349.81523)"
          d="M 0 0 L 19.771 35.308 C 19.899 35.536 19.909 35.813 19.798 36.05 L 7.924 60.254 C 7.592 60.958 6.555 60.836 6.396 60.073 L -4.102 5.288 C -4.142 5.099 -4.111 4.901 -4.019 4.732 L -1.419 .006 C -1.112 -.553 -.312 -.556 0 0 "
          fill="#231f20"
        />
        <path
          transform="matrix(1,0,0,-1,485.9077,440.55253)"
          d="M 0 0 L 30.441 53.261 C 30.574 53.494 30.579 53.778 30.455 54.017 L 19.538 74.331 C 19.21 74.957 18.287 74.867 18.087 74.189 L -4.981 6.226 C -5.046 6.009 -5.014 5.774 -4.893 5.582 L -1.348 -.029 C -1.031 -.531 -.294 -.515 0 0 "
          fill="#231f20"
        />
        <path
          transform="matrix(1,0,0,-1,524.5131,270.927)"
          d="M 0 0 L 5.185 27.875 C 5.229 28.093 5.163 28.319 5.01 28.48 L -17.912 54.942 C -18.383 55.438 -19.21 55.011 -19.078 54.34 L -5.857 5.344 C -5.839 5.25 -5.801 5.161 -5.746 5.083 L -1.229 -.259 C -.884 -.751 -.117 -.589 0 0 "
          fill="#231f20"
        />
        <path
          transform="matrix(1,0,0,-1,503.0864,196.5989)"
          d="M 0 0 L -3.785 35.541 C -3.808 35.756 -3.931 35.949 -4.116 36.062 L -34.697 56.634 C -35.281 56.989 -35.976 56.378 -35.696 55.753 L -7.829 4.751 C -7.783 4.648 -7.713 4.558 -7.624 4.488 L -1.124 -.622 C -.64 -1.003 .065 -.613 0 0 "
          fill="#231f20"
        />
        <path
          transform="matrix(1,0,0,-1,427.2231,170.93341)"
          d="M 0 0 C 0 0 -33.324 75.163 -131.921 84.506 C -132.166 84.529 -132.414 109.786 -132.167 130.476 C -132.164 130.722 -114.72 131.809 -105.565 139.658 C -105.379 139.818 -60.736 125.752 -48.175 104.815 C -48.048 104.604 -65.58 100.034 -78.718 90.529 C -78.917 90.385 -15.908 72.548 9.955 45.701 C 9.955 45.701 4.536 46.193 1.334 43.237 C 1.153 43.07 5.521 38.558 10.201 33.631 C 10.201 33.631 8.724 9.739 1.088 .872 Z "
          fill="#231f20"
        />
        <path
          transform="matrix(1,0,0,-1,141.2558,170.18103)"
          d="M 0 0 C 0 0 35.396 76.257 131.92 84.506 C 132.166 84.527 132.413 109.786 132.167 130.476 C 132.164 130.722 114.719 131.809 105.565 139.658 C 105.378 139.818 60.736 125.752 48.174 104.815 C 48.048 104.604 65.58 100.034 78.717 90.529 C 78.917 90.385 15.908 72.548 -9.955 45.701 C -9.955 45.701 -4.536 46.193 -1.334 43.237 C -1.153 43.07 -5.521 38.558 -10.202 33.631 C -10.202 33.631 -8.724 9.739 -1.088 .872 Z "
          fill="#231f20"
        />
        <path
          transform="matrix(1,0,0,-1,222.6591,513.3006)"
          d="M 0 0 L -11.647 3.095 L -11.647 31.759 L -19.184 26.415 L -27.209 30.813 L -13.018 39.997 L 0 39.997 Z "
          fill="#ffffff"
        />
        <path
          transform="matrix(1,0,0,-1,259.7529,479.23033)"
          d="M 0 0 C -3.46 0 -6.403 -.749 -8.833 -2.245 C -11.261 -3.742 -12.476 -5.584 -12.476 -7.772 C -12.476 -9.292 -11.906 -10.644 -10.764 -11.826 C -9.624 -13.011 -8.097 -13.938 -6.183 -14.607 C -4.27 -15.277 -2.208 -15.612 0 -15.612 C 2.281 -15.612 4.378 -15.267 6.293 -14.574 C 8.208 -13.881 9.732 -12.944 10.875 -11.759 C 12.015 -10.576 12.587 -9.246 12.587 -7.772 C 12.587 -6.389 12.015 -5.104 10.875 -3.92 C 9.732 -2.737 8.208 -1.787 6.293 -1.072 C 4.378 -.358 2.281 0 0 0 M .111 8.441 C 4.895 8.441 9.256 7.705 13.192 6.231 C 17.131 4.758 20.259 2.791 22.577 .335 C 24.896 -2.122 26.054 -4.824 26.054 -7.772 C 26.054 -11.659 25.117 -15.177 23.24 -18.326 C 21.363 -21.476 18.732 -24.48 15.345 -27.339 C 12.99 -29.305 10.305 -31.247 7.288 -33.167 C 4.269 -35.089 -.6 -39.095 -3.984 -41.06 L -19.431 -37.965 C -16.929 -36.357 -14.169 -35.703 -11.151 -33.938 C -8.133 -32.174 -5.282 -30.364 -2.594 -28.51 C .092 -26.658 2.319 -24.792 4.086 -22.916 C .184 -23.586 -3.571 -23.653 -7.176 -23.116 C -10.783 -22.581 -14.004 -21.587 -16.836 -20.135 C -19.67 -18.684 -21.915 -16.897 -23.571 -14.775 C -25.227 -12.654 -26.055 -10.318 -26.055 -7.772 C -26.055 -4.735 -24.859 -1.988 -22.467 .469 C -20.076 2.925 -16.892 4.868 -12.917 6.299 C -8.942 7.727 -4.601 8.441 .111 8.441 "
          fill="#ffffff"
        />
        <path
          transform="matrix(1,0,0,-1,324.0219,517.31137)"
          d="M 0 0 L -12.97 -2.979 L -12.97 36.07 L -21.472 29.638 L -30.524 34.932 L -14.517 45.987 L .167 45.987 Z "
          fill="#ffffff"
        />
        <path
          transform="matrix(1,0,0,-1,357.9057,510.04774)"
          d="M 0 0 L -11.044 -2.497 L -11.05 29.764 L -18.112 24.42 L -25.633 28.817 L -12.334 38.002 L -.136 38.002 Z "
          fill="#ffffff"
        />
        <path
          transform="matrix(1,0,0,-1,308.3061,408.4646)"
          d="M 0 0 C -3.952 -1.65 -11.016 -2.547 -23.262 -2.144 C -23.544 -2.135 -23.53 -16.005 -23.515 -21.241 C -19.391 -21.443 -15.926 -22.189 -14.063 -23.214 L -13.929 -23.214 C -13.534 -23.214 -13.166 -23.017 -12.947 -22.687 L 1.435 -1.734 C 2.08 -.761 1.078 .451 0 0 "
          fill="#231f20"
        />
        <path
          transform="matrix(1,0,0,-1,270.4492,431.76844)"
          d="M 0 0 L .392 0 C 2.238 .991 5.594 1.717 9.586 1.931 C 9.602 7.133 9.616 21.08 9.333 21.071 C -2.913 20.667 -10.046 22.396 -13.998 24.047 C -15.076 24.498 -16.078 23.286 -15.432 22.312 L -.981 .527 C -.763 .198 -.395 0 0 0 "
          fill="#231f20"
        />
        <path
          transform="matrix(1,0,0,-1,457.4536,122.9436)"
          d="M 0 0 L -14.218 33.21 C -14.308 33.438 -14.509 33.602 -14.749 33.644 L -39.368 38.055 C -40.017 38.167 -40.447 37.401 -40.013 36.906 L -7.764 2.618 C -7.658 2.497 -7.514 2.417 -7.354 2.39 L -.767 -.944 C -.23 -1.034 .198 -.505 0 0 "
          fill="#231f20"
        />
        <path
          transform="matrix(1,0,0,-1,50.9047,349.72444)"
          d="M 0 0 L -18.544 35.967 C -18.664 36.2 -18.664 36.477 -18.544 36.71 L -5.844 60.491 C -5.487 61.184 -4.456 61.025 -4.323 60.258 L 4.281 5.144 C 4.314 4.953 4.278 4.757 4.179 4.591 L 1.418 -.044 C 1.092 -.591 .292 -.566 0 0 "
          fill="#231f20"
        />
        <path
          transform="matrix(1,0,0,-1,80.9657,440.20783)"
          d="M 0 0 L -30.441 53.261 C -30.574 53.493 -30.579 53.778 -30.455 54.016 L -19.538 74.33 C -19.21 74.956 -18.287 74.866 -18.086 74.188 L 4.981 6.226 C 5.046 6.008 5.014 5.773 4.893 5.582 L 1.348 -.03 C 1.031 -.532 .294 -.516 0 0 "
          fill="#231f20"
        />
        <path
          transform="matrix(1,0,0,-1,42.3608,270.58283)"
          d="M 0 0 L -5.185 27.875 C -5.229 28.093 -5.163 28.319 -5.01 28.479 L 17.912 54.942 C 18.383 55.438 19.21 55.011 19.078 54.34 L 5.857 5.344 C 5.839 5.25 5.801 5.161 5.746 5.082 L 1.229 -.26 C .884 -.751 .117 -.589 0 0 "
          fill="#231f20"
        />
        <path
          transform="matrix(1,0,0,-1,63.787,196.25473)"
          d="M 0 0 L 3.785 35.54 C 3.808 35.756 3.931 35.949 4.116 36.062 L 34.697 56.633 C 35.282 56.989 35.976 56.377 35.696 55.753 L 7.83 4.751 C 7.783 4.648 7.713 4.558 7.624 4.488 L 1.125 -.622 C .64 -1.003 -.065 -.613 0 0 "
          fill="#231f20"
        />
        <path
          transform="matrix(1,0,0,-1,109.4203,122.59943)"
          d="M 0 0 L 14.218 33.21 C 14.307 33.438 14.508 33.602 14.749 33.644 L 39.368 38.055 C 40.017 38.167 40.447 37.401 40.012 36.906 L 7.764 2.618 C 7.658 2.497 7.513 2.416 7.354 2.39 L .766 -.944 C .23 -1.034 -.198 -.506 0 0 "
          fill="#231f20"
        />
      </g>
    </g>
  </g>
</svg>
